<svg xmlns="http://www.w3.org/2000/svg" width="140.64" height="22.04" viewBox="0 0 140.64 22.04"><path d="M.53 8.97C.21 9.22.01 9.53 0 10c0 2.52.27 4.02.65 4.96.37.93.81 1.31 1.31 1.7.48.36.97.62 1.34.79.36.16.59.22.59.23l.33.09-.78 4.2.92.07 1.37-4.15 15.1-.88.39-.01 1.64 4.29.76-.16-.78-4.25.32-.09c0-.01.23-.07.6-.24.36-.15.85-.41 1.34-.78.77-.6 2.11-2.14 2.11-5.56 0-.65-.04-1.36-.16-2.15-.11-.84-.9-1.26-1.78-1.27-.72 0-1.36.32-1.52.74-.51 1.11-.14 3.06-.43 4.55-.26 1.28-1.11 2.19-2.41 2.4-2.79.47-4.92.55-7.7.71-2.41.14-4.05.21-6.47.26h-.09c-.94 0-1.64-.27-2.12-.76-.46-.49-.68-1.12-.82-1.79-.25-1.34-.21-2.58-.69-3.68-.15-.36-.65-.62-1.27-.62h-.01c-.43 0-.89.14-1.21.37zM20.79.05C18.69.08 6.73.88 3.56 1.44.53 1.98.44 5.07.93 7.68c.27-.08.55-.11.82-.11.79 0 1.62.31 1.96 1.08.43 1 .5 1.93.61 2.96.11 1.03.29 1.9.76 2.37.31.31.76.52 1.57.52h.08c2.41-.04 4.05-.11 6.44-.25 2.79-.16 4.9-.24 7.61-.71 1.03-.19 1.31-.74 1.56-1.8.28-1.23-.15-3.2.47-4.69.31-.68 1.23-1.04 1.96-1.15.1-2.79-.61-5.9-3.98-5.85zm14.87 5.63c-.19-.02-.44-.05-.7-.05-2.19 0-3.69 1.15-3.69 3.06 0 .84.34 1.61 1.06 2.34l.59.52c.56.47 1.33 1.04 1.96 1.51.76.55 1.05 1.05 1.05 1.62 0 .82-.54 1.39-1.41 1.49-.15.02-.32.05-.46.05-.68 0-1.34-.18-1.85-.4-.24-.12-.46-.2-.65-.2h-.1c-.24.32-.39.85-.39 1.24.24.62 1.53 1.07 3.04 1.07 2.23 0 4.05-1.17 4.05-3.48 0-1.04-.39-1.86-1.43-2.7-.73-.63-1.85-1.37-2.45-1.87-.59-.47-.78-.84-.78-1.26 0-.77.66-1.3 1.65-1.3.44 0 .83.08 1.19.23.41.15.78.17 1.12.25.19-.28.36-.8.36-1.12-.09-.3-.7-.9-2.16-1zm7.82 10.66c-1.43 0-2.48-1.17-2.48-4.59 0-3.23 1.15-4.45 2.43-4.45h.05c1.46 0 2.41 1.22 2.41 4.47 0 3.43-1.12 4.57-2.41 4.57zm-.05 1.62c2.7 0 4.69-2.12 4.69-6.26 0-4-1.56-6.07-4.62-6.07-2.79 0-4.75 1.94-4.75 6.21 0 4.3 1.67 6.12 4.68 6.12zM56.18.86c0-.12.03-.27-.07-.39-.22-.25-.83-.47-1.82-.47-1.7 0-3.94.79-4.2 4.09-.08.58-.1 1.2-.1 1.87l-.95.22c-.39.1-.46.22-.56 1.14.27.2.73.28 1.51.3l.02 6.41-.02 3.03c0 .23 0 .42.02.57.17.03.34.05.54.05.29 0 .99-.02 1.38-.1.2-.07.2-.34.2-.47-.03-2.66-.05-6.68-.05-9.49.75 0 1.41 0 1.92-.05.12-.02.21-.07.26-.1.34-.12.46-.37.54-1.54-.32.03-.85.03-1.39.03H52.1c0-.55 0-1.1.03-1.62.09-2.13 1.09-2.63 2.18-2.63.32 0 .73.02.97.1.2.05.41.12.49.1.12-.13.19-.28.29-.5.07-.17.1-.35.12-.55zm4.23 13c0 .52 0 .89-.05 1.19-.02.15-.05.3-.07.35-.34.42-1.14.77-1.87.77h-.17c-.75-.05-1.29-.5-1.29-1.77 0-1.56 1-2.08 2.16-2.28.25-.03.51-.05.8-.05.17 0 .34 0 .49.02v1.77zM55.6 7.1c0 .1 0 .2.03.27.04.3.14.75.36 1 .19 0 .44-.08.7-.2.71-.3 1.7-.65 2.55-.65 1.05 0 1.17.62 1.17 1.74v1.42c-.22-.05-.49-.08-.8-.08-.22 0-.44 0-.68.03-1.46.15-4.11.92-4.11 3.97 0 2.29 1.49 3.28 3.04 3.28.66 0 1.24-.05 1.77-.32.27-.15.56-.42.71-.57.24.34.87.89 1.45.89.64-.02 1.1-.3 1.29-.57 0-.15 0-.57.03-.92-.78.15-.68-1.14-.68-1.14 0-1.32.04-3.31.04-5.02V9.11c0-2.11-.58-3.33-2.38-3.45-.41-.03-.46-.03-.85-.03-1.62.05-3.08.7-3.59 1.2l-.05.27zm14.11 9.19c0-.2-.03-.4-.05-.54-.2.17-1.31.52-1.68.49-.97 0-1.19-.97-1.29-2.36 0-.82-.02-1.79-.02-2.88 0-1.07.02-2.24.05-3.38 1.04 0 1.36 0 1.99-.02.19 0 .39-.03.58-.05.34-.08.49-.35.56-1.59h-3.13c0-1.02.02-2.06.05-3.21-1.14.08-1.65.5-1.82 1l-.13 2.23c-.36.18-1.11.25-1.45.55-.2.2-.22.1-.22.87.29.15.68.25 1.46.25v6.13c0 2.02.41 4.18 2.67 4.18.75 0 1.58-.18 2.04-.48.19-.15.31-.29.36-.49.03-.23.03-.47.03-.7zm3.61-7.48c0-1.26-.12-1.81-.26-2.38-.1-.4-.34-.85-.88-.85l-.19.03c-.63.3-1 .52-1.14.69.19.6.34 1.27.34 2.19l-.25 5.19c.05 2.64.61 4.1 3.43 4.23.53 0 .99-.1 1.5-.28.54-.17 1.1-.47 1.68-.97.1.43.31.75.75.75l.17-.03c.54-.24.85-.42.97-.57-.17-.49-.29-1.06-.29-1.86v-4.22c0-1.92.03-3.51.05-4.85-1.31.03-1.58 0-1.87.25-.22.32-.27.65-.27 1.17v7.9c-.41.52-1.28.92-2.13.87-1.17 0-1.85-.47-1.85-2.71l.24-4.55zm13.67 7.48c0-.2-.02-.4-.04-.54-.2.17-1.32.52-1.68.49-.97 0-1.19-.97-1.29-2.36 0-.82-.02-1.79-.02-2.88 0-1.07.02-2.24.05-3.38 1.04 0 1.36 0 1.99-.02.19 0 .39-.03.58-.05.34-.08.49-.35.56-1.59h-3.13c0-1.02.02-2.06.05-3.21-1.15.08-1.66.5-1.83 1l-.12 2.23c-.36.18-1.11.25-1.45.55-.2.2-.22.1-.22.87.29.15.68.25 1.45.25v6.13c0 2.02.42 4.18 2.68 4.18.75 0 1.57-.18 2.04-.48.19-.15.31-.29.36-.49.02-.23.02-.47.02-.7zm5.3.05c-1.43 0-2.48-1.17-2.48-4.59 0-3.23 1.14-4.45 2.43-4.45h.05c1.46 0 2.4 1.22 2.4 4.47 0 3.43-1.12 4.57-2.4 4.57zm-.05 1.62c2.69 0 4.69-2.12 4.69-6.26 0-4-1.56-6.07-4.62-6.07-2.79 0-4.76 1.94-4.76 6.21 0 4.3 1.68 6.12 4.69 6.12zm8.18-9.44c.49-.53 1.12-.8 1.92-.8.12 0 .27 0 .44.05.19.03.41.05.58.05l.22-.02c.29-.45.39-1.1.39-1.45-.08-.34-.42-.54-1.05-.62-.43-.07-.85.05-1.31.2-.51.18-1.09.47-1.65.97-.12-.42-.32-.74-.75-.74l-.17.02c-.56.25-.85.42-1 .57.17.5.32 1.07.32 1.87l-.03 4.19c0 1.94-.02 3.53-.04 4.87 1.31 0 1.6-.02 1.91-.25.2-.27.22-.57.22-.99V8.52zm4.88 6.41c-1 0-1.44.49-1.44 1.44 0 1.01.32 1.49 1.27 1.49 1.14 0 1.41-.65 1.43-1.54.03-.92-.17-1.39-1.26-1.39zm10.03-7.08c.2-.35.32-.9.32-1.22-.1-.33-1.17-1-2.6-1-1.17 0-2.38.3-3.33 1.22-.95.9-1.77 2.51-1.77 5.14 0 4.97 2.23 5.97 4.86 5.97.87 0 1.67-.23 2.13-.55.29-.22.51-.65.54-.99 0-.18-.08-.45-.15-.7a5 5 0 0 1-2.09.47c-1.58 0-3.11-.74-3.11-4.32 0-2.98 1.1-4.35 2.63-4.47.12-.03.22-.03.34-.03.48 0 1.02.13 1.45.33.25.07.49.15.66.15h.12zm5.47 8.49c-1.44 0-2.48-1.17-2.48-4.59 0-3.23 1.14-4.45 2.43-4.45h.05c1.45 0 2.4 1.22 2.4 4.47 0 3.43-1.12 4.57-2.4 4.57zm-.05 1.62c2.69 0 4.68-2.12 4.68-6.26 0-4-1.55-6.07-4.61-6.07-2.79 0-4.76 1.94-4.76 6.21 0 4.3 1.68 6.12 4.69 6.12zm13.72-.3c.19-.05.31-.15.31-.4V8.49c.51-.57 1.22-1.04 2.07-1.04 1.24 0 1.62.69 1.62 2.63v6.81c0 .35.08.59.17.79 1.36 0 1.7-.07 2-.3-.05-.89-.05-2.01-.05-3.25V9.96c0-2.49-.51-4.1-2.65-4.28-.15-.02-.32-.02-.49-.02-.51 0-.97.07-1.48.25-.56.17-1.16.49-1.75.99-.41-.72-1.04-1.17-2.13-1.24-.15-.03-.32-.03-.44-.03-.56 0-1.02.08-1.53.25-.51.18-1.09.47-1.68.97-.09-.42-.29-.74-.75-.74l-.17.02c-.53.25-.85.42-.97.57.17.5.29 1.07.29 1.87v4.44c0 1.87 0 3.41-.02 4.67 1.28 0 1.55 0 1.87-.25.19-.24.24-.49.24-.91V8.47c.51-.58 1.21-1.05 2.11-1.05 1.22 0 1.63.7 1.63 2.64v2.98c0 1.86 0 3.38-.05 4.64h1c.41 0 .68 0 .85-.02z" fill-rule="evenodd" clip-rule="evenodd" fill="#9c0"/></svg>